{
  "source": "C:\\Users\\Peter\\Desktop\\stuff\\MIUN\\quantitative_research\\video_compression\\videos\\BVI-HD\\BVI-HD_CDVL_videos\\ORIG\\BricksLeaves_1920x1080_60fps.mp4",
  "output": "C:\\Users\\Peter\\Desktop\\stuff\\MIUN\\quantitative_research\\video_compression\\compressed_videos\\BVI-HD\\vp9\\2\\BricksLeaves_1920x1080_60fps_vp9.webm",
  "codec": "vp9",
  "ok": "Input #0, mov,mp4,m4a,3gp,3g2,mj2, from 'C:\\Users\\Peter\\Desktop\\stuff\\MIUN\\quantitative_research\\video_compression\\videos\\BVI-HD\\BVI-HD_CDVL_videos\\ORIG\\BricksLeaves_1920x1080_60fps.mp4':\n  Metadata:\n    major_brand     : isom\n    minor_version   : 512\n    compatible_brands: isomiso2avc1mp41\n    encoder         : Lavf54.28.101\n  Duration: 00:00:05.00, start: 0.000000, bitrate: 524627 kb/s\n  Stream #0:0[0x1](und): Video: h264 (High 4:4:4 Predictive) (avc1 / 0x31637661), yuv420p(progressive), 1920x1080, 524622 kb/s, 60 fps, 60 tbr, 60 tbn (default)\n    Metadata:\n      handler_name    : VideoHandler\n      vendor_id       : [0][0][0][0]\n[out#0/webm @ 000001561fa29040] Codec AVOption b:a (set bitrate (in bits/s)) has not been used for any stream. The most likely reason is either wrong type (e.g. a video option with no video streams) or that it is a private option of some decoder which was not actually used for any stream.\nStream mapping:\n  Stream #0:0 -> #0:0 (h264 (native) -> vp9 (libvpx-vp9))\nPress [q] to stop, [?] for help\n[libvpx-vp9 @ 0000015621db0640] v1.15.2-100-g40561f514\nOutput #0, webm, to 'C:\\Users\\Peter\\Desktop\\stuff\\MIUN\\quantitative_research\\video_compression\\compressed_videos\\BVI-HD\\vp9\\2\\BricksLeaves_1920x1080_60fps_vp9.webm':\n  Metadata:\n    major_brand     : isom\n    minor_version   : 512\n    compatible_brands: isomiso2avc1mp41\n    encoder         : Lavf62.3.100\n  Stream #0:0(und): Video: vp9, yuv420p(tv, progressive), 1920x1080, q=2-31, 2000 kb/s, 60 fps, 1k tbn (default)\n    Metadata:\n      encoder         : Lavc62.11.100 libvpx-vp9\n      handler_name    : VideoHandler\n      vendor_id       : [0][0][0][0]\n    Side data:\n      cpb: bitrate max/min/avg: 0/0/0 buffer size: 2000000 vbv_delay: N/A\nframe=    0 fps=0.0 q=0.0 size=       0KiB time=N/A bitrate=N/A speed=N/A elapsed=0:00:00.51    \nframe=    5 fps=4.4 q=61.0 size=       1KiB time=00:00:00.08 bitrate=  60.8kbits/s speed=0.0725x elapsed=0:00:01.14    \nframe=   12 fps=7.2 q=56.0 size=       1KiB time=00:00:00.20 bitrate=  25.3kbits/s speed=0.12x elapsed=0:00:01.67    \nframe=   20 fps=9.1 q=56.0 size=       1KiB time=00:00:00.33 bitrate=  15.2kbits/s speed=0.152x elapsed=0:00:02.19    \nframe=   26 fps=9.6 q=57.0 size=       1KiB time=00:00:00.43 bitrate=  11.7kbits/s speed=0.159x elapsed=0:00:02.71    \nframe=   33 fps= 10 q=60.0 size=       1KiB time=00:00:00.55 bitrate=   9.2kbits/s speed=0.17x elapsed=0:00:03.22    \nframe=   39 fps= 10 q=62.0 size=       1KiB time=00:00:00.65 bitrate=   7.8kbits/s speed=0.173x elapsed=0:00:03.75    \nframe=   46 fps= 11 q=62.0 size=       1KiB time=00:00:00.76 bitrate=   6.6kbits/s speed=0.179x elapsed=0:00:04.27    \nframe=   52 fps= 11 q=61.0 size=       1KiB time=00:00:00.86 bitrate=   5.8kbits/s speed=0.179x elapsed=0:00:04.82    \nframe=   57 fps= 11 q=62.0 size=       1KiB time=00:00:00.95 bitrate=   5.3kbits/s speed=0.177x elapsed=0:00:05.36    \nframe=   62 fps= 10 q=62.0 size=       1KiB time=00:00:01.03 bitrate=   4.9kbits/s speed=0.174x elapsed=0:00:05.92    \nframe=   66 fps= 10 q=62.0 size=       1KiB time=00:00:01.10 bitrate=   4.6kbits/s speed=0.17x elapsed=0:00:06.47    \nframe=   69 fps=9.7 q=62.0 size=       1KiB time=00:00:01.15 bitrate=   4.4kbits/s speed=0.162x elapsed=0:00:07.09    \nframe=   72 fps=9.4 q=62.0 size=       1KiB time=00:00:01.20 bitrate=   4.2kbits/s speed=0.156x elapsed=0:00:07.69    \nframe=   76 fps=9.2 q=62.0 size=       1KiB time=00:00:01.26 bitrate=   4.0kbits/s speed=0.154x elapsed=0:00:08.23    \nframe=   80 fps=9.1 q=62.0 size=       1KiB time=00:00:01.33 bitrate=   3.8kbits/s speed=0.152x elapsed=0:00:08.76    \nframe=   84 fps=9.1 q=62.0 size=       1KiB time=00:00:01.40 bitrate=   3.6kbits/s speed=0.151x elapsed=0:00:09.28    \nframe=   88 fps=9.0 q=62.0 size=       1KiB time=00:00:01.46 bitrate=   3.5kbits/s speed=0.149x elapsed=0:00:09.81    \nframe=   93 fps=9.0 q=62.0 size=       1KiB time=00:00:01.55 bitrate=   3.3kbits/s speed=0.15x elapsed=0:00:10.36    \nframe=   96 fps=8.8 q=62.0 size=       1KiB time=00:00:01.60 bitrate=   3.2kbits/s speed=0.146x elapsed=0:00:10.93    \nframe=  101 fps=8.8 q=62.0 size=       1KiB time=00:00:01.68 bitrate=   3.0kbits/s speed=0.147x elapsed=0:00:11.47    \nframe=  108 fps=9.0 q=62.0 size=       1KiB time=00:00:01.80 bitrate=   2.8kbits/s speed=0.15x elapsed=0:00:12.00    \nframe=  114 fps=9.1 q=62.0 size=       1KiB time=00:00:01.88 bitrate=   2.7kbits/s speed=0.15x elapsed=0:00:12.55    \nframe=  118 fps=9.0 q=62.0 size=       1KiB time=00:00:01.96 bitrate=   2.6kbits/s speed=0.15x elapsed=0:00:13.10    \nframe=  123 fps=9.0 q=62.0 size=       1KiB time=00:00:02.03 bitrate=   2.5kbits/s speed=0.149x elapsed=0:00:13.65    \nframe=  127 fps=8.9 q=62.0 size=       1KiB time=00:00:02.11 bitrate=   2.4kbits/s speed=0.149x elapsed=0:00:14.21    \nframe=  129 fps=8.7 q=44.0 size=       1KiB time=00:00:02.13 bitrate=   2.4kbits/s speed=0.144x elapsed=0:00:14.76    \nframe=  135 fps=8.8 q=63.0 size=     512KiB time=00:00:02.25 bitrate=1864.1kbits/s speed=0.147x elapsed=0:00:15.31    \nframe=  139 fps=8.8 q=62.0 size=     512KiB time=00:00:02.31 bitrate=1810.5kbits/s speed=0.146x elapsed=0:00:15.86    \nframe=  144 fps=8.8 q=63.0 size=     512KiB time=00:00:02.40 bitrate=1747.6kbits/s speed=0.146x elapsed=0:00:16.40    \nframe=  148 fps=8.7 q=63.0 size=     512KiB time=00:00:02.46 bitrate=1700.4kbits/s speed=0.146x elapsed=0:00:16.94    \nframe=  151 fps=8.6 q=63.0 size=     512KiB time=00:00:02.51 bitrate=1666.6kbits/s speed=0.144x elapsed=0:00:17.46    \nframe=  155 fps=8.6 q=63.0 size=     512KiB time=00:00:02.58 bitrate=1623.6kbits/s speed=0.143x elapsed=0:00:18.00    \nframe=  160 fps=8.6 q=63.0 size=     512KiB time=00:00:02.66 bitrate=1572.9kbits/s speed=0.144x elapsed=0:00:18.55    \nframe=  164 fps=8.6 q=43.0 size=     512KiB time=00:00:02.73 bitrate=1534.5kbits/s speed=0.143x elapsed=0:00:19.11    \nframe=  169 fps=8.6 q=63.0 size=     512KiB time=00:00:02.81 bitrate=1489.1kbits/s speed=0.143x elapsed=0:00:19.64    \nframe=  174 fps=8.6 q=63.0 size=     512KiB time=00:00:02.90 bitrate=1446.3kbits/s speed=0.144x elapsed=0:00:20.17    \nframe=  176 fps=8.5 q=43.0 size=     512KiB time=00:00:02.93 bitrate=1429.9kbits/s speed=0.142x elapsed=0:00:20.69    \nframe=  180 fps=8.5 q=63.0 size=     512KiB time=00:00:03.00 bitrate=1398.1kbits/s speed=0.141x elapsed=0:00:21.21    \nframe=  185 fps=8.5 q=62.0 size=     512KiB time=00:00:03.08 bitrate=1360.3kbits/s speed=0.142x elapsed=0:00:21.76    \nframe=  188 fps=8.4 q=41.0 size=     512KiB time=00:00:03.13 bitrate=1338.6kbits/s speed=0.14x elapsed=0:00:22.31    \nframe=  195 fps=8.5 q=62.0 size=     512KiB time=00:00:03.25 bitrate=1290.6kbits/s speed=0.142x elapsed=0:00:22.86    \nframe=  199 fps=8.5 q=62.0 size=     512KiB time=00:00:03.31 bitrate=1264.6kbits/s speed=0.142x elapsed=0:00:23.40    \nframe=  202 fps=8.4 q=62.0 size=     512KiB time=00:00:03.36 bitrate=1245.8kbits/s speed=0.141x elapsed=0:00:23.91    \nframe=  207 fps=8.5 q=62.0 size=     512KiB time=00:00:03.45 bitrate=1215.7kbits/s speed=0.141x elapsed=0:00:24.48    \nframe=  211 fps=8.4 q=62.0 size=     512KiB time=00:00:03.51 bitrate=1192.7kbits/s speed=0.141x elapsed=0:00:25.02    \nframe=  215 fps=8.4 q=62.0 size=     512KiB time=00:00:03.56 bitrate=1176.0kbits/s speed=0.139x elapsed=0:00:25.58    \nframe=  221 fps=8.5 q=62.0 size=     512KiB time=00:00:03.68 bitrate=1138.7kbits/s speed=0.141x elapsed=0:00:26.13    \nframe=  224 fps=8.4 q=41.0 size=     512KiB time=00:00:03.73 bitrate=1123.5kbits/s speed=0.14x elapsed=0:00:26.68    \nframe=  231 fps=8.5 q=63.0 size=     512KiB time=00:00:03.83 bitrate=1094.2kbits/s speed=0.141x elapsed=0:00:27.20    \nframe=  235 fps=8.5 q=63.0 size=     512KiB time=00:00:03.91 bitrate=1070.9kbits/s speed=0.141x elapsed=0:00:27.77    \nframe=  239 fps=8.4 q=63.0 size=     512KiB time=00:00:03.96 bitrate=1057.4kbits/s speed=0.14x elapsed=0:00:28.32    \nframe=  242 fps=8.4 q=63.0 size=     512KiB time=00:00:04.03 bitrate=1039.9kbits/s speed=0.139x elapsed=0:00:28.94    \nframe=  245 fps=8.3 q=63.0 size=     512KiB time=00:00:04.08 bitrate=1027.2kbits/s speed=0.138x elapsed=0:00:29.52    \nframe=  248 fps=8.3 q=63.0 size=     512KiB time=00:00:04.13 bitrate=1014.8kbits/s speed=0.138x elapsed=0:00:30.04    \nframe=  251 fps=8.2 q=63.0 size=     512KiB time=00:00:04.18 bitrate=1002.6kbits/s speed=0.137x elapsed=0:00:30.56    \nframe=  255 fps=8.2 q=63.0 size=     512KiB time=00:00:04.25 bitrate= 986.9kbits/s speed=0.137x elapsed=0:00:31.09    \nframe=  256 fps=8.1 q=63.0 size=     512KiB time=00:00:04.26 bitrate= 983.0kbits/s speed=0.135x elapsed=0:00:31.63    \nframe=  259 fps=8.0 q=63.0 size=    1024KiB time=00:00:04.31 bitrate=1943.3kbits/s speed=0.134x elapsed=0:00:32.20    \nframe=  263 fps=8.0 q=63.0 size=    1024KiB time=00:00:04.38 bitrate=1913.8kbits/s speed=0.134x elapsed=0:00:32.73    \nframe=  267 fps=8.0 q=63.0 size=    1024KiB time=00:00:04.45 bitrate=1885.1kbits/s speed=0.134x elapsed=0:00:33.27    \nframe=  268 fps=7.9 q=63.0 size=    1024KiB time=00:00:04.46 bitrate=1878.0kbits/s speed=0.132x elapsed=0:00:33.84    \nframe=  271 fps=7.9 q=63.0 size=    1024KiB time=00:00:04.51 bitrate=1857.3kbits/s speed=0.131x elapsed=0:00:34.38    \nframe=  275 fps=7.9 q=63.0 size=    1024KiB time=00:00:04.58 bitrate=1830.2kbits/s speed=0.131x elapsed=0:00:34.94    \nframe=  276 fps=7.8 q=63.0 size=    1024KiB time=00:00:04.60 bitrate=1823.6kbits/s speed=0.13x elapsed=0:00:35.50    \nframe=  276 fps=7.7 q=63.0 size=    1024KiB time=00:00:04.60 bitrate=1823.6kbits/s speed=0.128x elapsed=0:00:36.04    \nframe=  276 fps=7.5 q=63.0 size=    1024KiB time=00:00:04.60 bitrate=1823.6kbits/s speed=0.126x elapsed=0:00:36.58    \nframe=  276 fps=7.4 q=63.0 size=    1024KiB time=00:00:04.60 bitrate=1823.6kbits/s speed=0.124x elapsed=0:00:37.13    \nframe=  276 fps=7.3 q=63.0 size=    1024KiB time=00:00:04.60 bitrate=1823.6kbits/s speed=0.122x elapsed=0:00:37.66    \nframe=  276 fps=7.2 q=63.0 size=    1024KiB time=00:00:04.60 bitrate=1823.6kbits/s speed=0.12x elapsed=0:00:38.22    \nframe=  276 fps=7.1 q=63.0 size=    1024KiB time=00:00:04.60 bitrate=1823.6kbits/s speed=0.119x elapsed=0:00:38.75    \nframe=  276 fps=7.0 q=63.0 size=    1024KiB time=00:00:04.60 bitrate=1823.6kbits/s speed=0.117x elapsed=0:00:39.28    \nframe=  276 fps=6.9 q=63.0 size=    1024KiB time=00:00:04.60 bitrate=1823.6kbits/s speed=0.116x elapsed=0:00:39.82    \n[out#0/webm @ 000001561fa29040] video:1615KiB audio:0KiB subtitle:0KiB other streams:0KiB global headers:0KiB muxing overhead: 0.171888%\nframe=  300 fps=7.5 q=63.0 Lsize=    1617KiB time=00:00:05.00 bitrate=2650.0kbits/s speed=0.125x elapsed=0:00:40.12    \n",
  "seconds": 40.46745204925537,
  "probe_out": {}
}